<svg width="280" height="91" viewBox="0 0 280 91" fill="none" xmlns="http://www.w3.org/2000/svg">
<path d="M52.47 75.4239C34.86 75.4239 18.46 80.5739 4.68002 89.4539C4.32002 89.6839 4.49001 90.2439 4.92001 90.2439H100.03C100.45 90.2439 100.62 89.6839 100.27 89.4539C86.4901 80.5839 70.09 75.4239 52.48 75.4239H52.47Z" fill="#00B2BA"/>
<path d="M67.59 48.8139C76.39 64.0639 89.06 75.6939 103.63 83.1839C104.01 83.3739 104.41 82.9539 104.2 82.5839L56.64 0.213922C56.43 -0.156078 55.86 -0.0160758 55.84 0.403924C55.04 16.7739 58.78 33.5539 67.59 48.8039V48.8139Z" fill="#00B2BA"/>
<path d="M37.3501 48.8139C28.5501 64.0639 15.8801 75.6939 1.3101 83.1839C0.930095 83.3739 0.530088 82.9539 0.740088 82.5839L48.3001 0.213922C48.5101 -0.156078 49.0801 -0.0160758 49.1001 0.403924C49.9001 16.7739 46.1601 33.5539 37.3501 48.8039V48.8139Z" fill="#00B2BA"/>
<path d="M52.1801 46.9739L40.71 63.8339H63.65L52.1801 46.9739Z" fill="#00B2BA"/>
<path d="M162.48 77.9139C162.94 76.8639 163.58 75.9639 164.4 75.2039C165.22 74.4439 166.18 73.8739 167.27 73.4639C168.37 73.0639 169.55 72.8639 170.81 72.8639C172.07 72.8639 173.3 73.0639 174.4 73.4639C175.5 73.8639 176.45 74.4439 177.27 75.2039C178.09 75.9639 178.72 76.8639 179.17 77.9139C179.62 78.9639 179.84 80.1339 179.84 81.4339C179.84 82.7339 179.62 83.9139 179.18 84.9839C178.74 86.0539 178.12 86.9839 177.32 87.7739C176.52 88.5639 175.56 89.1639 174.46 89.5939C173.36 90.0239 172.14 90.2339 170.81 90.2339C169.48 90.2339 168.27 90.0239 167.16 89.5939C166.06 89.1739 165.1 88.5639 164.3 87.7739C163.5 86.9839 162.88 86.0539 162.43 84.9839C161.99 83.9139 161.77 82.7239 161.77 81.4339C161.77 80.1439 162 78.9639 162.46 77.9139H162.48ZM167.62 83.5139C167.91 84.1139 168.33 84.5839 168.87 84.9139C169.41 85.2439 170.06 85.4139 170.82 85.4139C171.58 85.4139 172.23 85.2439 172.77 84.9139C173.31 84.5839 173.73 84.1139 174.02 83.5139C174.31 82.9139 174.46 82.2139 174.46 81.4339C174.46 80.6539 174.32 79.9339 174.04 79.3339C173.76 78.7439 173.36 78.2739 172.82 77.9439C172.29 77.6139 171.62 77.4439 170.82 77.4439C170.02 77.4439 169.41 77.6139 168.87 77.9439C168.33 78.2739 167.91 78.7439 167.62 79.3339C167.33 79.9239 167.18 80.6239 167.18 81.4339C167.18 82.2439 167.33 82.9139 167.62 83.5139Z" fill="white"/>
<path d="M143.48 76.034C143.01 75.204 142.28 74.5739 141.28 74.1239C140.28 73.6739 138.99 73.4539 137.4 73.4539H131.03V89.6639H136.12V84.5739H137.39C138.98 84.5739 140.27 84.3539 141.27 83.9039C142.27 83.4539 143 82.8139 143.47 81.9839C143.94 81.1539 144.18 80.1639 144.18 79.0239C144.18 77.8839 143.94 76.8739 143.47 76.0439L143.48 76.034ZM138.84 80.1239C138.52 80.3839 138.04 80.5139 137.4 80.5139H136.13V77.504H137.4C138.03 77.504 138.51 77.634 138.84 77.894C139.16 78.154 139.33 78.524 139.33 79.004C139.33 79.484 139.17 79.854 138.84 80.114V80.1239Z" fill="white"/>
<path d="M155.19 89.6539H161.1L157.22 83.8439C158.21 83.3639 158.95 82.7039 159.42 81.8639C159.89 81.0239 160.13 80.0739 160.13 79.0039C160.13 77.9339 159.89 76.9639 159.42 76.1339C158.95 75.3039 158.22 74.6439 157.22 74.1639C156.22 73.6839 154.93 73.4439 153.34 73.4439H146.51V89.6539H151.6V84.5639H152.3L155.19 89.6539ZM152.87 77.7239C153.3 77.7239 153.66 77.7839 153.94 77.8939C154.22 78.0139 154.43 78.1839 154.58 78.4039C154.73 78.6239 154.8 78.9039 154.8 79.2239C154.8 79.5439 154.73 79.8039 154.58 80.0339C154.43 80.2639 154.22 80.4439 153.94 80.5539C153.66 80.6739 153.31 80.7239 152.87 80.7239H151.6V77.7139H152.87V77.7239Z" fill="white"/>
<path d="M194.61 76.034C194.14 75.204 193.41 74.5739 192.41 74.1239C191.41 73.6739 190.12 73.4539 188.53 73.4539H182.16V89.6639H187.25V84.5739H188.52C190.11 84.5739 191.4 84.3539 192.4 83.9039C193.4 83.4539 194.13 82.8139 194.6 81.9839C195.07 81.1539 195.31 80.1639 195.31 79.0239C195.31 77.8839 195.07 76.8739 194.6 76.0439L194.61 76.034ZM189.97 80.1239C189.65 80.3839 189.17 80.5139 188.53 80.5139H187.26V77.504H188.53C189.16 77.504 189.64 77.634 189.97 77.894C190.29 78.154 190.46 78.524 190.46 79.004C190.46 79.484 190.3 79.854 189.97 80.114V80.1239Z" fill="white"/>
<path d="M209.33 77.5039V73.4439H202.5H201.15H197.63V89.6539H201.15H202.5H209.33V85.6039H202.5V83.2939H208.86V79.3539H202.5V77.5039H209.33Z" fill="white"/>
<path d="M221.02 89.6539H226.93L223.05 83.8439C224.04 83.3639 224.78 82.7039 225.25 81.8639C225.72 81.0239 225.96 80.0739 225.96 79.0039C225.96 77.9339 225.72 76.9639 225.25 76.1339C224.78 75.3039 224.05 74.6439 223.05 74.1639C222.05 73.6839 220.76 73.4439 219.17 73.4439H212.34V89.6539H217.43V84.5639H218.13L221.02 89.6539ZM218.7 77.7239C219.13 77.7239 219.49 77.7839 219.77 77.8939C220.05 78.0139 220.26 78.1839 220.41 78.4039C220.56 78.6239 220.63 78.9039 220.63 79.2239C220.63 79.5439 220.56 79.8039 220.41 80.0339C220.26 80.2639 220.05 80.4439 219.77 80.5539C219.49 80.6739 219.14 80.7239 218.7 80.7239H217.43V77.7139H218.7V77.7239Z" fill="white"/>
<path d="M226.93 73.4439H241.29V77.9639H236.66V89.6539H231.56V77.9639H226.93V73.4439Z" fill="white"/>
<path d="M248.11 73.4439V89.6539H242.9V73.4439H248.11Z" fill="white"/>
<path d="M263.05 77.5039V73.4439H256.22H254.88H251.36V89.6539H254.88H256.22H263.05V85.6039H256.22V83.2939H262.59V79.3539H256.22V77.5039H263.05Z" fill="white"/>
<path d="M269.92 85.0339C270.36 85.3939 270.82 85.6539 271.3 85.8039C271.79 85.9639 272.27 86.0239 272.75 85.9839C273.15 85.9539 273.48 85.8339 273.74 85.6539C274 85.4639 274.12 85.1939 274.09 84.8439C274.07 84.6239 273.98 84.4539 273.82 84.3139C273.66 84.1739 273.36 84.0239 272.91 83.8539C272.46 83.6939 271.79 83.4839 270.88 83.2139C270.48 83.0939 270.02 82.9239 269.5 82.7039C268.98 82.4839 268.47 82.1939 267.98 81.8139C267.49 81.4339 267.07 80.9639 266.72 80.3939C266.37 79.8239 266.16 79.1239 266.08 78.3139C265.99 77.2539 266.19 76.3339 266.7 75.5639C267.2 74.7939 267.91 74.1839 268.82 73.7239C269.73 73.2739 270.74 72.9939 271.86 72.9039C273.07 72.7939 274.13 72.8939 275.03 73.1839C275.93 73.4739 276.69 73.8739 277.3 74.3839C277.91 74.8939 278.38 75.4039 278.73 75.9339L275.15 78.3339C274.87 77.9739 274.57 77.6939 274.25 77.4939C273.93 77.2939 273.61 77.1539 273.3 77.0739C272.98 76.9939 272.68 76.9639 272.39 76.9939C272.04 77.0239 271.75 77.1139 271.54 77.2539C271.33 77.3939 271.23 77.5939 271.26 77.8639C271.29 78.1839 271.47 78.4339 271.8 78.6139C272.13 78.7939 272.57 78.9539 273.11 79.0839C273.65 79.2139 274.24 79.3639 274.89 79.5439C275.56 79.7139 276.16 79.9439 276.69 80.2139C277.22 80.4839 277.69 80.8139 278.09 81.1939C278.49 81.5739 278.8 82.0139 279.03 82.5139C279.26 83.0139 279.4 83.5739 279.46 84.2039C279.54 85.0939 279.42 85.9039 279.11 86.6139C278.8 87.3339 278.35 87.9439 277.77 88.4439C277.19 88.9439 276.51 89.3439 275.75 89.6439C274.98 89.9439 274.19 90.1239 273.36 90.2039C272.21 90.3039 271.12 90.2039 270.09 89.9239C269.07 89.6339 268.16 89.1939 267.38 88.5939C266.6 87.9939 265.99 87.3039 265.55 86.5239L268.74 83.7339C269.1 84.2439 269.49 84.6839 269.92 85.0339Z" fill="white"/>
<path d="M233.96 23.0039C231.79 19.3739 228.67 16.5739 224.6 14.6239C220.53 12.6739 215.65 11.6939 209.97 11.6939H190.76V60.5939H209.97C215.65 60.5939 220.53 59.6139 224.6 57.6639C228.67 55.7139 231.8 52.9039 233.96 49.2439C236.13 45.5939 237.21 41.2239 237.21 36.1439C237.21 31.0639 236.13 26.6439 233.96 23.0139V23.0039ZM220.06 42.1439C219.34 43.6339 218.39 44.7539 217.23 45.4939C216.07 46.2439 214.79 46.7239 213.39 46.9639C211.99 47.1939 210.62 47.3139 209.27 47.3139H206.76V24.9639H209.27C210.62 24.9639 211.99 25.0839 213.39 25.3139C214.79 25.5439 216.07 26.0339 217.23 26.7839C218.39 27.5339 219.34 28.6439 220.06 30.1339C220.78 31.6239 221.14 33.6239 221.14 36.1439C221.14 38.6639 220.78 40.6639 220.06 42.1539V42.1439Z" fill="white"/>
<path d="M259.56 11.6839V47.6539H279.47V60.5739H244.19V11.6739H259.56V11.6839Z" fill="white"/>
<path d="M160.46 11.6839H156.78L131.03 60.5839H148.49L151.93 54.2939H165.23L168.76 60.5839H186.22L160.47 11.6839H160.46ZM154.45 43.2539L158.62 33.8939L162.79 43.2539H154.45Z" fill="white"/>
</svg>
