<svg width="143" height="46" viewBox="0 0 143 46" fill="none" xmlns="http://www.w3.org/2000/svg">
<g id="Group 1">
<path id="Vector" d="M26.5625 38.4458C17.5301 38.4458 9.11843 41.0709 2.05054 45.5973C1.8659 45.7145 1.95309 46 2.17364 46H50.9564C51.1719 46 51.259 45.7145 51.0795 45.5973C44.0116 41.076 35.5999 38.4458 26.5676 38.4458H26.5625Z" fill="#00B2BA"/>
<path id="Vector_2" d="M34.3177 24.8819C38.8313 32.6553 45.3298 38.5834 52.8029 42.4013C52.9978 42.4982 53.203 42.2841 53.0953 42.0955L28.7013 0.109042C28.5936 -0.0795577 28.3012 -0.00819432 28.291 0.205892C27.8807 8.55017 29.7989 17.1034 34.3177 24.8768V24.8819Z" fill="#00B2BA"/>
<path id="Vector_3" d="M18.8073 24.8819C14.2937 32.6553 7.79517 38.5834 0.322089 42.4013C0.127184 42.4982 -0.0779833 42.2841 0.0297276 42.0955L24.4237 0.109042C24.5314 -0.0795577 24.8237 -0.00819432 24.834 0.205892C25.2443 8.55017 23.326 17.1034 18.8073 24.8768V24.8819Z" fill="#00B2BA"/>
<path id="Vector_4" d="M26.4138 23.944L20.5306 32.538H32.2968L26.4138 23.944Z" fill="#00B2BA"/>
<path id="Vector_5" d="M82.9877 39.715C83.2236 39.1798 83.5519 38.7211 83.9725 38.3337C84.3931 37.9463 84.8855 37.6557 85.4445 37.4467C86.0087 37.2428 86.614 37.1409 87.2603 37.1409C87.9065 37.1409 88.5374 37.2428 89.1016 37.4467C89.6658 37.6506 90.153 37.9463 90.5736 38.3337C90.9942 38.7211 91.3174 39.1798 91.5482 39.715C91.779 40.2502 91.8918 40.8466 91.8918 41.5093C91.8918 42.1719 91.779 42.7734 91.5533 43.3188C91.3276 43.8642 91.0096 44.3383 90.5992 44.741C90.1889 45.1437 89.6965 45.4495 89.1323 45.6687C88.5681 45.8879 87.9424 45.9949 87.2603 45.9949C86.5781 45.9949 85.9575 45.8879 85.3881 45.6687C84.8239 45.4546 84.3315 45.1437 83.9212 44.741C83.5109 44.3383 83.1929 43.8642 82.9621 43.3188C82.7364 42.7734 82.6235 42.1668 82.6235 41.5093C82.6235 40.8517 82.7415 40.2502 82.9774 39.715H82.9877ZM85.624 42.5695C85.7728 42.8754 85.9882 43.1149 86.2652 43.2831C86.5421 43.4513 86.8755 43.538 87.2653 43.538C87.6551 43.538 87.9886 43.4513 88.2655 43.2831C88.5425 43.1149 88.7579 42.8754 88.9067 42.5695C89.0554 42.2637 89.1323 41.9069 89.1323 41.5093C89.1323 41.1117 89.0606 40.7447 88.9169 40.4389C88.7733 40.1381 88.5681 39.8985 88.2911 39.7303C88.0193 39.5621 87.6757 39.4755 87.2653 39.4755C86.855 39.4755 86.5421 39.5621 86.2652 39.7303C85.9882 39.8985 85.7728 40.1381 85.624 40.4389C85.4753 40.7396 85.3984 41.0964 85.3984 41.5093C85.3984 41.9222 85.4753 42.2637 85.624 42.5695Z" fill="white"/>
<path id="Vector_6" d="M73.2424 38.7568C73.0013 38.3337 72.6269 38.0125 72.114 37.7832C71.6011 37.5538 70.9394 37.4417 70.1239 37.4417H66.8567V45.7044H69.4674V43.1098H70.1188C70.9343 43.1098 71.596 42.9977 72.1089 42.7683C72.6218 42.5389 72.9962 42.2127 73.2372 41.7896C73.4783 41.3666 73.6015 40.8619 73.6015 40.2808C73.6015 39.6997 73.4783 39.1849 73.2372 38.7618L73.2424 38.7568ZM70.8625 40.8415C70.6983 40.9741 70.4522 41.0403 70.1239 41.0403H69.4725V39.5061H70.1239C70.4471 39.5061 70.6932 39.5723 70.8625 39.7049C71.0266 39.8374 71.1138 40.026 71.1138 40.2707C71.1138 40.5153 71.0317 40.7039 70.8625 40.8365V40.8415Z" fill="white"/>
<path id="Vector_7" d="M79.2484 45.6993H82.2797L80.2896 42.7377C80.7974 42.4931 81.177 42.1567 81.4181 41.7285C81.6591 41.3003 81.7822 40.8161 81.7822 40.2707C81.7822 39.7252 81.6591 39.2308 81.4181 38.8077C81.177 38.3846 80.8025 38.0482 80.2896 37.8036C79.7767 37.5589 79.1151 37.4366 78.2995 37.4366H74.7964V45.6993H77.4071V43.1047H77.7662L79.2484 45.6993ZM78.0585 39.6182C78.279 39.6182 78.4637 39.6488 78.6073 39.7048C78.7509 39.766 78.8586 39.8527 78.9355 39.9648C79.0125 40.0769 79.0484 40.2197 79.0484 40.3828C79.0484 40.5459 79.0125 40.6784 78.9355 40.7957C78.8586 40.9129 78.7509 41.0047 78.6073 41.0607C78.4637 41.1219 78.2842 41.1474 78.0585 41.1474H77.4071V39.6131H78.0585V39.6182Z" fill="white"/>
<path id="Vector_8" d="M99.4675 38.7568C99.2264 38.3337 98.852 38.0125 98.3391 37.7832C97.8262 37.5538 97.1645 37.4417 96.349 37.4417H93.0818V45.7044H95.6925V43.1098H96.3439C97.1594 43.1098 97.8211 42.9977 98.334 42.7683C98.8469 42.5389 99.2213 42.2127 99.4623 41.7896C99.7034 41.3666 99.8265 40.8619 99.8265 40.2808C99.8265 39.6997 99.7034 39.1849 99.4623 38.7618L99.4675 38.7568ZM97.0876 40.8415C96.9234 40.9741 96.6773 41.0403 96.349 41.0403H95.6976V39.5061H96.349C96.6721 39.5061 96.9183 39.5723 97.0876 39.7049C97.2517 39.8374 97.3389 40.026 97.3389 40.2707C97.3389 40.5153 97.2568 40.7039 97.0876 40.8365V40.8415Z" fill="white"/>
<path id="Vector_9" d="M107.017 39.5061V37.4366H103.514H102.822H101.016V45.6993H102.822H103.514H107.017V43.6349H103.514V42.4574H106.776V40.4491H103.514V39.5061H107.017Z" fill="white"/>
<path id="Vector_10" d="M113.013 45.6993H116.044L114.054 42.7377C114.562 42.4931 114.942 42.1567 115.183 41.7285C115.424 41.3003 115.547 40.8161 115.547 40.2707C115.547 39.7252 115.424 39.2308 115.183 38.8077C114.942 38.3846 114.567 38.0482 114.054 37.8036C113.541 37.5589 112.88 37.4366 112.064 37.4366H108.561V45.6993H111.172V43.1047H111.531L113.013 45.6993ZM111.823 39.6182C112.044 39.6182 112.228 39.6488 112.372 39.7048C112.516 39.766 112.623 39.8527 112.7 39.9648C112.777 40.0769 112.813 40.2197 112.813 40.3828C112.813 40.5459 112.777 40.6784 112.7 40.7957C112.623 40.9129 112.516 41.0047 112.372 41.0607C112.228 41.1219 112.049 41.1474 111.823 41.1474H111.172V39.6131H111.823V39.6182Z" fill="white"/>
<path id="Vector_11" d="M116.045 37.4366H123.41V39.7405H121.035V45.6993H118.419V39.7405H116.045V37.4366Z" fill="white"/>
<path id="Vector_12" d="M126.908 37.4366V45.6993H124.236V37.4366H126.908Z" fill="white"/>
<path id="Vector_13" d="M134.571 39.5061V37.4366H131.068H130.38H128.575V45.6993H130.38H131.068H134.571V43.6349H131.068V42.4574H134.335V40.4491H131.068V39.5061H134.571Z" fill="white"/>
<path id="Vector_14" d="M138.094 43.3443C138.32 43.5278 138.556 43.6604 138.802 43.7368C139.054 43.8184 139.3 43.849 139.546 43.8286C139.751 43.8133 139.92 43.7521 140.054 43.6604C140.187 43.5635 140.249 43.4259 140.233 43.2475C140.223 43.1353 140.177 43.0487 140.095 42.9773C140.013 42.906 139.859 42.8295 139.628 42.7429C139.397 42.6613 139.054 42.5543 138.587 42.4166C138.382 42.3555 138.146 42.2688 137.879 42.1567C137.612 42.0445 137.351 41.8967 137.099 41.703C136.848 41.5093 136.633 41.2697 136.453 40.9792C136.274 40.6886 136.166 40.3318 136.125 39.919C136.079 39.3786 136.181 38.9097 136.443 38.5172C136.699 38.1247 137.063 37.8138 137.53 37.5793C137.997 37.3499 138.515 37.2072 139.089 37.1613C139.71 37.1052 140.254 37.1562 140.715 37.304C141.177 37.4519 141.567 37.6557 141.88 37.9157C142.193 38.1757 142.434 38.4356 142.613 38.7058L140.777 39.9291C140.633 39.7456 140.479 39.6029 140.315 39.501C140.151 39.399 139.987 39.3277 139.828 39.2869C139.664 39.2461 139.51 39.2308 139.361 39.2461C139.182 39.2614 139.033 39.3073 138.925 39.3786C138.818 39.45 138.766 39.5519 138.782 39.6896C138.797 39.8527 138.889 39.9801 139.059 40.0719C139.228 40.1636 139.454 40.2452 139.731 40.3114C140.008 40.3777 140.31 40.4542 140.644 40.5459C140.987 40.6326 141.295 40.7498 141.567 40.8874C141.839 41.0251 142.08 41.1933 142.285 41.387C142.49 41.5807 142.649 41.805 142.767 42.0598C142.885 42.3147 142.957 42.6001 142.988 42.9213C143.029 43.3749 142.967 43.7878 142.808 44.1497C142.649 44.5167 142.418 44.8277 142.121 45.0825C141.823 45.3374 141.474 45.5413 141.085 45.6942C140.69 45.8471 140.285 45.9389 139.859 45.9796C139.269 46.0306 138.71 45.9796 138.182 45.8369C137.658 45.6891 137.192 45.4648 136.792 45.159C136.392 44.8531 136.079 44.5014 135.853 44.1038L137.489 42.6817C137.674 42.9416 137.874 43.1659 138.094 43.3443Z" fill="white"/>
<path id="Vector_15" d="M119.65 11.7258C118.537 9.87548 116.937 8.44824 114.849 7.45426C112.762 6.46029 110.259 5.96075 107.346 5.96075H97.4927V30.8865H107.346C110.259 30.8865 112.762 30.387 114.849 29.393C116.937 28.3991 118.542 26.9667 119.65 25.1011C120.763 23.2406 121.317 21.0131 121.317 18.4236C121.317 15.8342 120.763 13.5812 119.65 11.7309V11.7258ZM112.521 21.482C112.152 22.2415 111.664 22.8124 111.069 23.1896C110.474 23.5719 109.818 23.8166 109.1 23.9389C108.382 24.0562 107.679 24.1173 106.987 24.1173H105.699V12.7249H106.987C107.679 12.7249 108.382 12.786 109.1 12.9033C109.818 13.0205 110.474 13.2703 111.069 13.6526C111.664 14.0349 112.152 14.6007 112.521 15.3602C112.89 16.1197 113.075 17.1391 113.075 18.4236C113.075 19.7082 112.89 20.7276 112.521 21.4871V21.482Z" fill="white"/>
<path id="Vector_16" d="M132.781 5.95563V24.2906H142.993V30.8763H124.897V5.95053H132.781V5.95563Z" fill="white"/>
<path id="Vector_17" d="M81.9516 5.95566H80.0641L66.8567 30.8814H75.8121L77.5765 27.6752H84.3982L86.2087 30.8814H95.1641L81.9567 5.95566H81.9516ZM78.869 22.0478L81.0078 17.2768L83.1467 22.0478H78.869Z" fill="white"/>
</g>
</svg>
